# Tiled2Unity generated file. Do not modify by hand.
# Wavefront file for 'pruebasP_mesh_0002.obj'

# Vertices (Count = 608)
v 0 -1 0
v -1 -1 0
v -1 0 0
v 0 0 0
v -14 -1 0
v -15 -1 0
v -15 0 0
v -14 0 0
v 0 -2 0
v -1 -2 0
v -1 -1 0
v 0 -1 0
v -1 -2 0
v -2 -2 0
v -2 -1 0
v -1 -1 0
v -13 -2 0
v -14 -2 0
v -14 -1 0
v -13 -1 0
v -14 -2 0
v -15 -2 0
v -15 -1 0
v -14 -1 0
v 0 -3 0
v -1 -3 0
v -1 -2 0
v 0 -2 0
v -1 -3 0
v -2 -3 0
v -2 -2 0
v -1 -2 0
v -2 -3 0
v -3 -3 0
v -3 -2 0
v -2 -2 0
v -12 -3 0
v -13 -3 0
v -13 -2 0
v -12 -2 0
v -13 -3 0
v -14 -3 0
v -14 -2 0
v -13 -2 0
v -14 -3 0
v -15 -3 0
v -15 -2 0
v -14 -2 0
v 0 -4 0
v -1 -4 0
v -1 -3 0
v 0 -3 0
v -1 -4 0
v -2 -4 0
v -2 -3 0
v -1 -3 0
v -2 -4 0
v -3 -4 0
v -3 -3 0
v -2 -3 0
v -3 -4 0
v -4 -4 0
v -4 -3 0
v -3 -3 0
v -11 -4 0
v -12 -4 0
v -12 -3 0
v -11 -3 0
v -12 -4 0
v -13 -4 0
v -13 -3 0
v -12 -3 0
v -13 -4 0
v -14 -4 0
v -14 -3 0
v -13 -3 0
v -14 -4 0
v -15 -4 0
v -15 -3 0
v -14 -3 0
v 0 -5 0
v -1 -5 0
v -1 -4 0
v 0 -4 0
v -1 -5 0
v -2 -5 0
v -2 -4 0
v -1 -4 0
v -2 -5 0
v -3 -5 0
v -3 -4 0
v -2 -4 0
v -3 -5 0
v -4 -5 0
v -4 -4 0
v -3 -4 0
v -4 -5 0
v -5 -5 0
v -5 -4 0
v -4 -4 0
v -10 -5 0
v -11 -5 0
v -11 -4 0
v -10 -4 0
v -11 -5 0
v -12 -5 0
v -12 -4 0
v -11 -4 0
v -12 -5 0
v -13 -5 0
v -13 -4 0
v -12 -4 0
v -13 -5 0
v -14 -5 0
v -14 -4 0
v -13 -4 0
v -14 -5 0
v -15 -5 0
v -15 -4 0
v -14 -4 0
v -1 -6 0
v -2 -6 0
v -2 -5 0
v -1 -5 0
v -2 -6 0
v -3 -6 0
v -3 -5 0
v -2 -5 0
v -3 -6 0
v -4 -6 0
v -4 -5 0
v -3 -5 0
v -4 -6 0
v -5 -6 0
v -5 -5 0
v -4 -5 0
v -5 -6 0
v -6 -6 0
v -6 -5 0
v -5 -5 0
v -6 -6 0
v -7 -6 0
v -7 -5 0
v -6 -5 0
v -7 -6 0
v -8 -6 0
v -8 -5 0
v -7 -5 0
v -8 -6 0
v -9 -6 0
v -9 -5 0
v -8 -5 0
v -9 -6 0
v -10 -6 0
v -10 -5 0
v -9 -5 0
v -10 -6 0
v -11 -6 0
v -11 -5 0
v -10 -5 0
v -11 -6 0
v -12 -6 0
v -12 -5 0
v -11 -5 0
v -12 -6 0
v -13 -6 0
v -13 -5 0
v -12 -5 0
v -13 -6 0
v -14 -6 0
v -14 -5 0
v -13 -5 0
v -14 -6 0
v -15 -6 0
v -15 -5 0
v -14 -5 0
v -2 -7 0
v -3 -7 0
v -3 -6 0
v -2 -6 0
v -3 -7 0
v -4 -7 0
v -4 -6 0
v -3 -6 0
v -4 -7 0
v -5 -7 0
v -5 -6 0
v -4 -6 0
v -5 -7 0
v -6 -7 0
v -6 -6 0
v -5 -6 0
v -6 -7 0
v -7 -7 0
v -7 -6 0
v -6 -6 0
v -7 -7 0
v -8 -7 0
v -8 -6 0
v -7 -6 0
v -8 -7 0
v -9 -7 0
v -9 -6 0
v -8 -6 0
v -9 -7 0
v -10 -7 0
v -10 -6 0
v -9 -6 0
v -10 -7 0
v -11 -7 0
v -11 -6 0
v -10 -6 0
v -11 -7 0
v -12 -7 0
v -12 -6 0
v -11 -6 0
v -12 -7 0
v -13 -7 0
v -13 -6 0
v -12 -6 0
v -13 -7 0
v -14 -7 0
v -14 -6 0
v -13 -6 0
v -14 -7 0
v -15 -7 0
v -15 -6 0
v -14 -6 0
v -3 -8 0
v -4 -8 0
v -4 -7 0
v -3 -7 0
v -4 -8 0
v -5 -8 0
v -5 -7 0
v -4 -7 0
v -5 -8 0
v -6 -8 0
v -6 -7 0
v -5 -7 0
v -6 -8 0
v -7 -8 0
v -7 -7 0
v -6 -7 0
v -7 -8 0
v -8 -8 0
v -8 -7 0
v -7 -7 0
v -8 -8 0
v -9 -8 0
v -9 -7 0
v -8 -7 0
v -9 -8 0
v -10 -8 0
v -10 -7 0
v -9 -7 0
v -10 -8 0
v -11 -8 0
v -11 -7 0
v -10 -7 0
v -11 -8 0
v -12 -8 0
v -12 -7 0
v -11 -7 0
v -12 -8 0
v -13 -8 0
v -13 -7 0
v -12 -7 0
v -13 -8 0
v -14 -8 0
v -14 -7 0
v -13 -7 0
v -14 -8 0
v -15 -8 0
v -15 -7 0
v -14 -7 0
v -4 -9 0
v -5 -9 0
v -5 -8 0
v -4 -8 0
v -5 -9 0
v -6 -9 0
v -6 -8 0
v -5 -8 0
v -6 -9 0
v -7 -9 0
v -7 -8 0
v -6 -8 0
v -7 -9 0
v -8 -9 0
v -8 -8 0
v -7 -8 0
v -8 -9 0
v -9 -9 0
v -9 -8 0
v -8 -8 0
v -9 -9 0
v -10 -9 0
v -10 -8 0
v -9 -8 0
v -10 -9 0
v -11 -9 0
v -11 -8 0
v -10 -8 0
v -12 -9 0
v -13 -9 0
v -13 -8 0
v -12 -8 0
v -13 -9 0
v -14 -9 0
v -14 -8 0
v -13 -8 0
v -14 -9 0
v -15 -9 0
v -15 -8 0
v -14 -8 0
v -5 -10 0
v -6 -10 0
v -6 -9 0
v -5 -9 0
v -9 -10 0
v -10 -10 0
v -10 -9 0
v -9 -9 0
v -12 -10 0
v -13 -10 0
v -13 -9 0
v -12 -9 0
v -13 -10 0
v -14 -10 0
v -14 -9 0
v -13 -9 0
v -14 -10 0
v -15 -10 0
v -15 -9 0
v -14 -9 0
v -11 -11 0
v -12 -11 0
v -12 -10 0
v -11 -10 0
v -12 -11 0
v -13 -11 0
v -13 -10 0
v -12 -10 0
v -13 -11 0
v -14 -11 0
v -14 -10 0
v -13 -10 0
v -14 -11 0
v -15 -11 0
v -15 -10 0
v -14 -10 0
v 0 -12 0
v -1 -12 0
v -1 -11 0
v 0 -11 0
v -1 -12 0
v -2 -12 0
v -2 -11 0
v -1 -11 0
v -11 -12 0
v -12 -12 0
v -12 -11 0
v -11 -11 0
v -12 -12 0
v -13 -12 0
v -13 -11 0
v -12 -11 0
v -13 -12 0
v -14 -12 0
v -14 -11 0
v -13 -11 0
v -14 -12 0
v -15 -12 0
v -15 -11 0
v -14 -11 0
v 0 -13 0
v -1 -13 0
v -1 -12 0
v 0 -12 0
v -1 -13 0
v -2 -13 0
v -2 -12 0
v -1 -12 0
v -2 -13 0
v -3 -13 0
v -3 -12 0
v -2 -12 0
v -11 -13 0
v -12 -13 0
v -12 -12 0
v -11 -12 0
v -12 -13 0
v -13 -13 0
v -13 -12 0
v -12 -12 0
v -13 -13 0
v -14 -13 0
v -14 -12 0
v -13 -12 0
v -14 -13 0
v -15 -13 0
v -15 -12 0
v -14 -12 0
v 0 -14 0
v -1 -14 0
v -1 -13 0
v 0 -13 0
v -1 -14 0
v -2 -14 0
v -2 -13 0
v -1 -13 0
v -2 -14 0
v -3 -14 0
v -3 -13 0
v -2 -13 0
v -10 -14 0
v -11 -14 0
v -11 -13 0
v -10 -13 0
v -11 -14 0
v -12 -14 0
v -12 -13 0
v -11 -13 0
v -12 -14 0
v -13 -14 0
v -13 -13 0
v -12 -13 0
v -13 -14 0
v -14 -14 0
v -14 -13 0
v -13 -13 0
v -14 -14 0
v -15 -14 0
v -15 -13 0
v -14 -13 0
v 0 -15 0
v -1 -15 0
v -1 -14 0
v 0 -14 0
v -1 -15 0
v -2 -15 0
v -2 -14 0
v -1 -14 0
v -2 -15 0
v -3 -15 0
v -3 -14 0
v -2 -14 0
v -10 -15 0
v -11 -15 0
v -11 -14 0
v -10 -14 0
v -11 -15 0
v -12 -15 0
v -12 -14 0
v -11 -14 0
v -12 -15 0
v -13 -15 0
v -13 -14 0
v -12 -14 0
v -13 -15 0
v -14 -15 0
v -14 -14 0
v -13 -14 0
v -14 -15 0
v -15 -15 0
v -15 -14 0
v -14 -14 0
v 0 -16 0
v -1 -16 0
v -1 -15 0
v 0 -15 0
v -1 -16 0
v -2 -16 0
v -2 -15 0
v -1 -15 0
v -10 -16 0
v -11 -16 0
v -11 -15 0
v -10 -15 0
v -11 -16 0
v -12 -16 0
v -12 -15 0
v -11 -15 0
v -12 -16 0
v -13 -16 0
v -13 -15 0
v -12 -15 0
v -13 -16 0
v -14 -16 0
v -14 -15 0
v -13 -15 0
v -14 -16 0
v -15 -16 0
v -15 -15 0
v -14 -15 0
v 0 -17 0
v -1 -17 0
v -1 -16 0
v 0 -16 0
v -1 -17 0
v -2 -17 0
v -2 -16 0
v -1 -16 0
v -2 -17 0
v -3 -17 0
v -3 -16 0
v -2 -16 0
v -10 -17 0
v -11 -17 0
v -11 -16 0
v -10 -16 0
v -11 -17 0
v -12 -17 0
v -12 -16 0
v -11 -16 0
v -12 -17 0
v -13 -17 0
v -13 -16 0
v -12 -16 0
v -13 -17 0
v -14 -17 0
v -14 -16 0
v -13 -16 0
v -14 -17 0
v -15 -17 0
v -15 -16 0
v -14 -16 0
v 0 -18 0
v -1 -18 0
v -1 -17 0
v 0 -17 0
v -1 -18 0
v -2 -18 0
v -2 -17 0
v -1 -17 0
v -2 -18 0
v -3 -18 0
v -3 -17 0
v -2 -17 0
v -10 -18 0
v -11 -18 0
v -11 -17 0
v -10 -17 0
v -11 -18 0
v -12 -18 0
v -12 -17 0
v -11 -17 0
v -12 -18 0
v -13 -18 0
v -13 -17 0
v -12 -17 0
v -13 -18 0
v -14 -18 0
v -14 -17 0
v -13 -17 0
v -14 -18 0
v -15 -18 0
v -15 -17 0
v -14 -17 0
v 0 -19 0
v -1 -19 0
v -1 -18 0
v 0 -18 0
v -1 -19 0
v -2 -19 0
v -2 -18 0
v -1 -18 0
v -2 -19 0
v -3 -19 0
v -3 -18 0
v -2 -18 0
v -11 -19 0
v -12 -19 0
v -12 -18 0
v -11 -18 0
v -12 -19 0
v -13 -19 0
v -13 -18 0
v -12 -18 0
v -13 -19 0
v -14 -19 0
v -14 -18 0
v -13 -18 0
v -14 -19 0
v -15 -19 0
v -15 -18 0
v -14 -18 0
v 0 -20 0
v -1 -20 0
v -1 -19 0
v 0 -19 0
v -1 -20 0
v -2 -20 0
v -2 -19 0
v -1 -19 0
v -12 -20 0
v -13 -20 0
v -13 -19 0
v -12 -19 0
v -13 -20 0
v -14 -20 0
v -14 -19 0
v -13 -19 0
v -14 -20 0
v -15 -20 0
v -15 -19 0
v -14 -19 0

# Texture cooridinates (Count = 65)
vt 0.1 0.6666666
vt 0.125 0.6666666
vt 0.125 0.6944444
vt 0.1 0.6944444
vt 0.15 0.6666666
vt 0.175 0.6666666
vt 0.175 0.6944444
vt 0.15 0.6944444
vt 0.1 0.6388889
vt 0.125 0.6388889
vt 0.15 0.6388889
vt 0.175 0.6388889
vt 0.1 0.6111111
vt 0.125 0.6111111
vt 0.15 0.6111111
vt 0.175 0.6111111
vt 0.1 0.5833334
vt 0.125 0.5833334
vt 0.15 0.5833334
vt 0.175 0.5833334
vt 0.1 0.5555556
vt 0.125 0.5555556
vt 0.15 0.5555556
vt 0.175 0.5555556
vt 0.05 0.8055556
vt 0.075 0.8055556
vt 0.075 0.8333333
vt 0.05 0.8333333
vt 0.1 0.8055556
vt 0.1 0.8333333
vt 0.05 0.7777778
vt 0.075 0.7777778
vt 0.1 0.7777778
vt 0.2 0.6666666
vt 0.2 0.6944444
vt 0.075 0.6944444
vt 0.1 0.7222222
vt 0.075 0.7222222
vt 0.2 0.6388889
vt 0.125 0.4722222
vt 0.15 0.4722222
vt 0.15 0.5
vt 0.125 0.5
vt 0.15 0.5277778
vt 0.175 0.5277778
vt 0.1 0.4444444
vt 0.125 0.4444444
vt 0.1 0.4722222
vt 0.175 0.5
vt 0.2 0.5
vt 0.2 0.5277778
vt 0.1 0.5277778
vt 0.125 0.5277778
vt 0.075 0.5277778
vt 0.075 0.5555556
vt 0.175 0.4722222
vt 0.2 0.4722222
vt 0.05 0.5277778
vt 0.05 0.5555556
vt 0.075 0.4444444
vt 0.075 0.4722222
vt 0.2 0.5555556
vt 0.05 0.75
vt 0.075 0.75
vt 0.1 0.75

# Normal
vn 0 0 -1

# Mesh description
g pruebasP_mesh_0002

# Faces
f 1/1/1 2/2/1 3/3/1 4/4/1
f 5/5/1 6/6/1 7/7/1 8/8/1
f 9/9/1 10/10/1 11/2/1 12/1/1
f 13/1/1 14/2/1 15/3/1 16/4/1
f 17/5/1 18/6/1 19/7/1 20/8/1
f 21/11/1 22/12/1 23/6/1 24/5/1
f 25/13/1 26/14/1 27/10/1 28/9/1
f 29/9/1 30/10/1 31/2/1 32/1/1
f 33/1/1 34/2/1 35/3/1 36/4/1
f 37/5/1 38/6/1 39/7/1 40/8/1
f 41/11/1 42/12/1 43/6/1 44/5/1
f 45/15/1 46/16/1 47/12/1 48/11/1
f 49/17/1 50/18/1 51/14/1 52/13/1
f 53/13/1 54/14/1 55/10/1 56/9/1
f 57/9/1 58/10/1 59/2/1 60/1/1
f 61/1/1 62/2/1 63/3/1 64/4/1
f 65/5/1 66/6/1 67/7/1 68/8/1
f 69/11/1 70/12/1 71/6/1 72/5/1
f 73/15/1 74/16/1 75/12/1 76/11/1
f 77/19/1 78/20/1 79/16/1 80/15/1
f 81/21/1 82/22/1 83/18/1 84/17/1
f 85/17/1 86/18/1 87/14/1 88/13/1
f 89/13/1 90/14/1 91/10/1 92/9/1
f 93/9/1 94/10/1 95/2/1 96/1/1
f 97/1/1 98/2/1 99/3/1 100/4/1
f 101/5/1 102/6/1 103/7/1 104/8/1
f 105/11/1 106/12/1 107/6/1 108/5/1
f 109/15/1 110/16/1 111/12/1 112/11/1
f 113/19/1 114/20/1 115/16/1 116/15/1
f 117/23/1 118/24/1 119/20/1 120/19/1
f 121/21/1 122/22/1 123/18/1 124/17/1
f 125/17/1 126/18/1 127/14/1 128/13/1
f 129/13/1 130/14/1 131/10/1 132/9/1
f 133/9/1 134/10/1 135/2/1 136/1/1
f 137/1/1 138/2/1 139/3/1 140/4/1
f 141/2/1 142/5/1 143/8/1 144/3/1
f 145/2/1 146/5/1 147/8/1 148/3/1
f 149/2/1 150/5/1 151/8/1 152/3/1
f 153/5/1 154/6/1 155/7/1 156/8/1
f 157/11/1 158/12/1 159/6/1 160/5/1
f 161/15/1 162/16/1 163/12/1 164/11/1
f 165/19/1 166/20/1 167/16/1 168/15/1
f 169/25/1 170/26/1 171/27/1 172/28/1
f 173/26/1 174/29/1 175/30/1 176/27/1
f 177/21/1 178/22/1 179/18/1 180/17/1
f 181/17/1 182/18/1 183/14/1 184/13/1
f 185/13/1 186/14/1 187/10/1 188/9/1
f 189/9/1 190/10/1 191/2/1 192/1/1
f 193/10/1 194/11/1 195/5/1 196/2/1
f 197/10/1 198/11/1 199/5/1 200/2/1
f 201/10/1 202/11/1 203/5/1 204/2/1
f 205/11/1 206/12/1 207/6/1 208/5/1
f 209/15/1 210/16/1 211/12/1 212/11/1
f 213/19/1 214/20/1 215/16/1 216/15/1
f 217/23/1 218/24/1 219/20/1 220/19/1
f 221/31/1 222/32/1 223/26/1 224/25/1
f 225/32/1 226/33/1 227/29/1 228/26/1
f 229/21/1 230/22/1 231/18/1 232/17/1
f 233/17/1 234/18/1 235/14/1 236/13/1
f 237/13/1 238/14/1 239/10/1 240/9/1
f 241/14/1 242/15/1 243/11/1 244/10/1
f 245/6/1 246/34/1 247/35/1 248/7/1
f 249/14/1 250/15/1 251/11/1 252/10/1
f 253/15/1 254/16/1 255/12/1 256/11/1
f 257/19/1 258/20/1 259/16/1 260/15/1
f 261/23/1 262/24/1 263/20/1 264/19/1
f 265/25/1 266/26/1 267/27/1 268/28/1
f 269/36/1 270/4/1 271/37/1 272/38/1
f 273/32/1 274/33/1 275/29/1 276/26/1
f 277/21/1 278/22/1 279/18/1 280/17/1
f 281/17/1 282/18/1 283/14/1 284/13/1
f 285/18/1 286/19/1 287/15/1 288/14/1
f 289/12/1 290/39/1 291/34/1 292/6/1
f 293/18/1 294/19/1 295/15/1 296/14/1
f 297/19/1 298/20/1 299/16/1 300/15/1
f 301/23/1 302/24/1 303/20/1 304/19/1
f 305/31/1 306/32/1 307/26/1 308/25/1
f 309/32/1 310/33/1 311/29/1 312/26/1
f 313/32/1 314/33/1 315/29/1 316/26/1
f 317/21/1 318/22/1 319/18/1 320/17/1
f 321/23/1 322/24/1 323/20/1 324/19/1
f 325/31/1 326/32/1 327/26/1 328/25/1
f 329/32/1 330/33/1 331/29/1 332/26/1
f 333/32/1 334/33/1 335/29/1 336/26/1
f 337/25/1 338/26/1 339/27/1 340/28/1
f 341/36/1 342/4/1 343/37/1 344/38/1
f 345/32/1 346/33/1 347/29/1 348/26/1
f 349/32/1 350/33/1 351/29/1 352/26/1
f 353/40/1 354/41/1 355/42/1 356/43/1
f 357/44/1 358/45/1 359/24/1 360/23/1
f 361/31/1 362/32/1 363/26/1 364/25/1
f 365/32/1 366/33/1 367/29/1 368/26/1
f 369/32/1 370/33/1 371/29/1 372/26/1
f 373/32/1 374/33/1 375/29/1 376/26/1
f 377/46/1 378/47/1 379/40/1 380/48/1
f 381/49/1 382/50/1 383/51/1 384/45/1
f 385/44/1 386/45/1 387/24/1 388/23/1
f 389/31/1 390/32/1 391/26/1 392/25/1
f 393/32/1 394/33/1 395/29/1 396/26/1
f 397/32/1 398/33/1 399/29/1 400/26/1
f 401/32/1 402/33/1 403/29/1 404/26/1
f 405/52/1 406/53/1 407/22/1 408/21/1
f 409/54/1 410/52/1 411/21/1 412/55/1
f 413/56/1 414/57/1 415/50/1 416/49/1
f 417/25/1 418/26/1 419/27/1 420/28/1
f 421/36/1 422/4/1 423/37/1 424/38/1
f 425/32/1 426/33/1 427/29/1 428/26/1
f 429/32/1 430/33/1 431/29/1 432/26/1
f 433/32/1 434/33/1 435/29/1 436/26/1
f 437/58/1 438/54/1 439/55/1 440/59/1
f 441/46/1 442/47/1 443/40/1 444/48/1
f 445/42/1 446/49/1 447/45/1 448/44/1
f 449/31/1 450/32/1 451/26/1 452/25/1
f 453/32/1 454/33/1 455/29/1 456/26/1
f 457/32/1 458/33/1 459/29/1 460/26/1
f 461/32/1 462/33/1 463/29/1 464/26/1
f 465/32/1 466/33/1 467/29/1 468/26/1
f 469/60/1 470/46/1 471/48/1 472/61/1
f 473/56/1 474/57/1 475/50/1 476/49/1
f 477/31/1 478/32/1 479/26/1 480/25/1
f 481/32/1 482/33/1 483/29/1 484/26/1
f 485/32/1 486/33/1 487/29/1 488/26/1
f 489/32/1 490/33/1 491/29/1 492/26/1
f 493/32/1 494/33/1 495/29/1 496/26/1
f 497/45/1 498/51/1 499/62/1 500/24/1
f 501/49/1 502/50/1 503/51/1 504/45/1
f 505/44/1 506/45/1 507/24/1 508/23/1
f 509/31/1 510/32/1 511/26/1 512/25/1
f 513/32/1 514/33/1 515/29/1 516/26/1
f 517/32/1 518/33/1 519/29/1 520/26/1
f 521/32/1 522/33/1 523/29/1 524/26/1
f 525/32/1 526/33/1 527/29/1 528/26/1
f 529/52/1 530/53/1 531/22/1 532/21/1
f 533/54/1 534/52/1 535/21/1 536/55/1
f 537/56/1 538/57/1 539/50/1 540/49/1
f 541/63/1 542/64/1 543/32/1 544/31/1
f 545/38/1 546/37/1 547/65/1 548/64/1
f 549/32/1 550/33/1 551/29/1 552/26/1
f 553/32/1 554/33/1 555/29/1 556/26/1
f 557/32/1 558/33/1 559/29/1 560/26/1
f 561/58/1 562/54/1 563/55/1 564/59/1
f 565/46/1 566/47/1 567/40/1 568/48/1
f 569/42/1 570/49/1 571/45/1 572/44/1
f 573/63/1 574/64/1 575/32/1 576/31/1
f 577/38/1 578/37/1 579/65/1 580/64/1
f 581/32/1 582/33/1 583/29/1 584/26/1
f 585/32/1 586/33/1 587/29/1 588/26/1
f 589/58/1 590/54/1 591/55/1 592/59/1
f 593/56/1 594/57/1 595/50/1 596/49/1
f 597/63/1 598/64/1 599/32/1 600/31/1
f 601/38/1 602/37/1 603/65/1 604/64/1
f 605/32/1 606/33/1 607/29/1 608/26/1

